<mxfile host="app.diagrams.net" agent="Mozilla/5.0 (Windows NT 10.0; Win64; x64) AppleWebKit/537.36 (KHTML, like Gecko) Chrome/133.0.0.0 Safari/537.36" version="26.0.16">
  <diagram id="diagramId" name="Page-1">
    <mxGraphModel dx="1434" dy="780" grid="1" gridSize="10" guides="1" tooltips="1" connect="1" arrows="1" fold="1" page="1" pageScale="1" pageWidth="850" pageHeight="1100" math="0" shadow="0">
      <root>
        <mxCell id="0" />
        <mxCell id="1" parent="0" />
        <mxCell id="2" value="Internet" style="rounded=1;whiteSpace=wrap;html=1;fillColor=#dae8fc;" parent="1" vertex="1">
          <mxGeometry x="30" y="80" width="120" height="60" as="geometry" />
        </mxCell>
        <mxCell id="3" value="On-Premises" style="rounded=1;whiteSpace=wrap;html=1;fillColor=#ffe6cc;" parent="1" vertex="1">
          <mxGeometry x="30" y="160" width="120" height="60" as="geometry" />
        </mxCell>
        <mxCell id="4" value="Azure West Europe&#xa;Acme Corporation" style="swimlane;html=1;rounded=1;fillColor=#e1d5e7;strokeColor=#9673a6;startSize=23;" parent="1" vertex="1">
          <mxGeometry x="210" y="70" width="500" height="510" as="geometry" />
        </mxCell>
        <mxCell id="5" value="Virtual Network&#xa;(10.0.0.0/16)" style="rounded=1;whiteSpace=wrap;html=1;fillColor=#d5e8d4;" parent="4" vertex="1">
          <mxGeometry x="20" y="40" width="200" height="100" as="geometry" />
        </mxCell>
        <mxCell id="6" value="Private Endpoints Subnet&#xa;(10.0.1.0/24)" style="rounded=1;whiteSpace=wrap;html=1;fillColor=#fff2cc;" parent="5" vertex="1">
          <mxGeometry x="10" y="10" width="180" height="40" as="geometry" />
        </mxCell>
        <mxCell id="7" value="Gateway Subnet&#xa;(10.0.2.0/27)" style="rounded=1;whiteSpace=wrap;html=1;fillColor=#fff2cc;" parent="5" vertex="1">
          <mxGeometry x="10" y="60" width="180" height="40" as="geometry" />
        </mxCell>
        <mxCell id="8" value="Backend Web App&#xa;(Azure App Service)" style="rounded=1;whiteSpace=wrap;html=1;fillColor=#d5e8d4;" parent="4" vertex="1">
          <mxGeometry x="250" y="80" width="180" height="60" as="geometry" />
        </mxCell>
        <mxCell id="9" value="Middleware Web App&#xa;(Azure App Service)" style="rounded=1;whiteSpace=wrap;html=1;fillColor=#d5e8d4;" parent="4" vertex="1">
          <mxGeometry x="250" y="180" width="180" height="60" as="geometry" />
        </mxCell>
        <mxCell id="10" value="Azure SQL Database&#xa;(TDE with CMK)" style="rounded=1;whiteSpace=wrap;html=1;fillColor=#f8cecc;" parent="4" vertex="1">
          <mxGeometry x="250" y="280" width="180" height="60" as="geometry" />
        </mxCell>
        <mxCell id="11" value="Key Vault&#xa;(CMK)" style="rounded=1;whiteSpace=wrap;html=1;fillColor=#dae8fc;" parent="4" vertex="1">
          <mxGeometry x="250" y="380" width="180" height="60" as="geometry" />
        </mxCell>
        <mxCell id="12" value="VPN Gateway" style="rounded=1;whiteSpace=wrap;html=1;fillColor=#e1d5e7;" parent="4" vertex="1">
          <mxGeometry x="250" y="480" width="180" height="60" as="geometry" />
        </mxCell>
        <mxCell id="15" value="Private Link" style="edgeStyle=elbowEdgeStyle;rounded=0;html=1;strokeColor=#000000;" parent="4" source="8" target="9" edge="1">
          <mxGeometry relative="1" as="geometry" />
        </mxCell>
        <mxCell id="16" value="Private Link" style="edgeStyle=elbowEdgeStyle;rounded=0;html=1;strokeColor=#000000;" parent="4" source="9" target="10" edge="1">
          <mxGeometry relative="1" as="geometry" />
        </mxCell>
        <mxCell id="17" value="Encryption Key" style="edgeStyle=elbowEdgeStyle;rounded=0;html=1;strokeColor=#000000;" parent="4" source="10" target="11" edge="1">
          <mxGeometry relative="1" as="geometry" />
        </mxCell>
        <mxCell id="18" style="edgeStyle=elbowEdgeStyle;rounded=0;html=1;strokeColor=#000000;" parent="4" source="12" target="5" edge="1">
          <mxGeometry relative="1" as="geometry" />
        </mxCell>
        <mxCell id="13" style="edgeStyle=orthogonalEdgeStyle;rounded=0;html=1;exitX=1;exitY=0.5;exitPerimeter=1;entryX=0;entryY=0.5;entryPerimeter=1;strokeColor=#000000;" parent="1" source="2" target="8" edge="1">
          <mxGeometry relative="1" as="geometry">
            <mxPoint x="150" y="110" as="targetPoint" />
          </mxGeometry>
        </mxCell>
        <mxCell id="14" style="edgeStyle=orthogonalEdgeStyle;rounded=0;html=1;exitX=1;exitY=0.5;exitPerimeter=1;entryX=0.5;entryY=0;entryPerimeter=1;strokeColor=#000000;" parent="1" source="3" target="12" edge="1">
          <mxGeometry relative="1" as="geometry" />
        </mxCell>
      </root>
    </mxGraphModel>
  </diagram>
</mxfile>
